<?xml version="1.0" encoding="utf-8"?>
<!-- Generator: Adobe Illustrator 19.2.0, SVG Export Plug-In . SVG Version: 6.00 Build 0)  -->
<svg version="1.1" id="Layer_1" xmlns="http://www.w3.org/2000/svg" xmlns:xlink="http://www.w3.org/1999/xlink" x="0px" y="0px"
	 viewBox="0 0 50 50" enable-background="new 0 0 50 50" xml:space="preserve">
<g>
	<g>
		<path fill-rule="evenodd" clip-rule="evenodd" fill="#222222" d="M19.1,0C8.6,0,0,8.6,0,19.1c0,10.5,8.6,19.1,19.1,19.1
			c10.5,0,19.1-8.6,19.1-19.1C38.2,8.6,29.6,0,19.1,0z M19.1,35c-8.8,0-15.9-7.1-15.9-15.9c0-8.8,7.1-15.9,15.9-15.9
			c8.8,0,15.9,7.1,15.9,15.9C35,27.9,27.9,35,19.1,35z M48.6,41.8l-7.7-7.7c-1.9-1.9-4.9-1.9-6.8,0c-1.9,1.9-1.9,4.9,0,6.8l7.7,7.7
			c1.9,1.9,4.9,1.9,6.8,0C50.5,46.7,50.5,43.7,48.6,41.8z"/>
	</g>
</g>
</svg>
