<?xml version="1.0" encoding="utf-8"?>
<!-- Generator: Adobe Illustrator 19.2.0, SVG Export Plug-In . SVG Version: 6.00 Build 0)  -->
<svg version="1.1" id="Layer_1" xmlns="http://www.w3.org/2000/svg" xmlns:xlink="http://www.w3.org/1999/xlink" x="0px" y="0px"
	 viewBox="0 0 50 50" enable-background="new 0 0 50 50" xml:space="preserve">
<g>
	<path fill="#dbdbdb" fill-rule="evenodd" clip-rule="evenodd" d="M42.7,7.3C38,2.6,31.7,0,25,0C18.3,0,12,2.6,7.3,7.3S0,18.3,0,25s2.6,13,7.3,17.7
		S18.3,50,25,50s13-2.6,17.7-7.3C47.4,38,50,31.7,50,25C50,18.3,47.4,12,42.7,7.3z M40.9,40.9c-4.2,4.3-9.9,6.6-15.9,6.6
		s-11.7-2.3-15.9-6.6S2.5,31,2.5,25c0-6,2.3-11.7,6.6-15.9C13.3,4.8,19,2.5,25,2.5c6,0,11.7,2.3,15.9,6.6S47.5,19,47.5,25
		C47.5,31,45.2,36.7,40.9,40.9z"/>
	<polygon fill="#dbdbdb" fill-rule="evenodd" clip-rule="evenodd" points="32.1,16.2 25,23.2 17.9,16.2 16.2,17.9 23.2,25 16.2,32.1 17.9,33.8
		25,26.8 32.1,33.8 33.8,32.1 26.8,25 33.8,17.9 	"/>
</g>
</svg>
