<?xml version="1.0" encoding="UTF-8" standalone="no"?>
<svg width="12px" height="15px" viewBox="0 0 12 15" version="1.1" xmlns="http://www.w3.org/2000/svg" xmlns:xlink="http://www.w3.org/1999/xlink">
    <!-- Generator: Sketch 3.8.3 (29802) - http://www.bohemiancoding.com/sketch -->
    <title>Combined Shape</title>
    <desc>Created with Sketch.</desc>
    <defs></defs>
    <g id="Page-1" stroke="none" stroke-width="1" fill="none" fill-rule="evenodd">
        <g id="7" transform="translate(-503.000000, -1437.000000)" fill="#FD9827">
            <g id="Group" transform="translate(100.000000, 1418.000000)">
                <g id="copy" transform="translate(393.000000, 10.000000)">
                    <path d="M21.4545455,19.9090909 L13.8181818,19.9090909 C13.5170909,19.9090909 13.2727273,19.6647273 13.2727273,19.3636364 L13.2727273,9.54545455 C13.2727273,9.24436364 13.5170909,9 13.8181818,9 L21.4545455,9 C21.7556364,9 22,9.24436364 22,9.54545455 L22,19.3636364 C22,19.6647273 21.7556364,19.9090909 21.4545455,19.9090909 L21.4545455,19.9090909 Z M14.3636364,10.0909091 L14.3636364,18.8181818 L20.9090909,18.8181818 L20.9090909,10.0909091 L14.3636364,10.0909091 Z M18.1818182,23.1818182 L10.5454545,23.1818182 C10.2443636,23.1818182 10,22.9374545 10,22.6363636 L10,12.8181818 C10,12.5170909 10.2443636,12.2727273 10.5454545,12.2727273 L11.6363636,12.2727273 C11.9374545,12.2727273 12.1818182,12.5170909 12.1818182,12.8181818 C12.1818182,13.1192727 11.9374545,13.3636364 11.6363636,13.3636364 L11.0909091,13.3636364 L11.0909091,22.0909091 L17.6363636,22.0909091 L17.6363636,21.5454545 C17.6363636,21.2443636 17.8807273,21 18.1818182,21 C18.4829091,21 18.7272727,21.2443636 18.7272727,21.5454545 L18.7272727,22.6363636 C18.7272727,22.9374545 18.4829091,23.1818182 18.1818182,23.1818182 Z" id="Combined-Shape"></path>
                </g>
            </g>
        </g>
    </g>
</svg>