<?xml version="1.0" encoding="utf-8"?>
<!-- Generator: Adobe Illustrator 19.0.0, SVG Export Plug-In . SVG Version: 6.00 Build 0)  -->
<svg version="1.1" id="Layer_1" xmlns="http://www.w3.org/2000/svg" xmlns:xlink="http://www.w3.org/1999/xlink" x="0px" y="0px"
	 viewBox="0 0 414 82.8" style="enable-background:new 0 0 414 82.8;" xml:space="preserve">
<style type="text/css">
	.st0{fill:#F26122;}
	.st1{fill:#ED1C24;}
	.st2{fill:#F99F1C;}
</style>
<g>
	<g id="XMLID_23_">
		<rect x="43.8" y="13" class="st0" fill="#F26122" width="31.5" height="56.6"/>
		<path id="XMLID_35_" class="st1" fill="#ED1C24"  d="M45.8,41.3c0-11.5,5.4-21.7,13.7-28.3c-6.1-4.8-13.8-7.7-22.2-7.7c-19.9,0-36,16.1-36,36
			c0,19.9,16.1,36,36,36c8.4,0,16.1-2.9,22.2-7.7C51.2,63,45.8,52.7,45.8,41.3z"/>
		<path d="M114.4,63.6v-1.2h0.5v-0.2h-1.2v0.2h0.5v1.2H114.4z M116.7,63.6v-1.4h-0.4l-0.4,1l-0.4-1h-0.4v1.4h0.3v-1.1l0.4,0.9h0.3
			l0.4-0.9v1.1H116.7z"/>
		<path class="st2" fill="#F99F1C" d="M117.8,41.3c0,19.9-16.1,36-36,36c-8.4,0-16.1-2.9-22.2-7.7c8.4-6.6,13.7-16.8,13.7-28.3S67.9,19.5,59.6,13
			c6.1-4.8,13.8-7.7,22.2-7.7C101.7,5.3,117.8,21.4,117.8,41.3z"/>
	</g>
	<path id="XMLID_622_" d="M179.7,53.4v-15c0-5.7-3.6-9.5-9.4-9.5c-3.1,0-6.2,0.9-8.4,4.3c-1.7-2.7-4.3-4.3-7.9-4.3
		c-2.6,0-5.1,0.8-7,3.6v-3h-5.2v23.9h5.3V40.1c0-4.2,2.3-6.4,5.9-6.4c3.5,0,5.2,2.3,5.2,6.3v13.3h5.3V40.1c0-4.2,2.4-6.4,5.9-6.4
		c3.6,0,5.3,2.3,5.3,6.3v13.3H179.7z M257.6,29.4H249v-7.3h-5.3v7.3h-4.9v4.8h4.9v10.9c0,5.6,2.2,8.9,8.3,8.9c2.3,0,4.9-0.7,6.5-1.9
		l-1.5-4.5c-1.6,0.9-3.3,1.4-4.6,1.4c-2.6,0-3.5-1.6-3.5-4V34.2h8.5V29.4z M302,28.8c-3,0-5,1.4-6.3,3.5v-2.9h-5.2v23.9h5.2V40
		c0-4,1.7-6.2,5.1-6.2c1.1,0,2.2,0.2,3.3,0.6l1.6-4.9C304.5,29,303,28.8,302,28.8L302,28.8z M234.8,31.3c-2.5-1.7-6-2.5-9.8-2.5
		c-6.1,0-10,2.9-10,7.7c0,3.9,2.9,6.3,8.3,7.1l2.5,0.4c2.9,0.4,4.2,1.2,4.2,2.5c0,1.9-1.9,2.9-5.5,2.9c-3.6,0-6.2-1.2-8-2.5
		l-2.5,4.1c2.9,2.1,6.5,3.1,10.4,3.1c6.9,0,10.9-3.3,10.9-7.8c0-4.2-3.2-6.4-8.4-7.2l-2.5-0.4c-2.3-0.3-4.1-0.8-4.1-2.4
		c0-1.8,1.7-2.8,4.6-2.8c3.1,0,6,1.2,7.5,2.1L234.8,31.3z M374.4,28.8c-3,0-5,1.4-6.3,3.5v-2.9h-5.2v23.9h5.2V40
		c0-4,1.7-6.2,5.1-6.2c1.1,0,2.2,0.2,3.3,0.6l1.6-4.9C376.9,29,375.4,28.8,374.4,28.8L374.4,28.8z M307.2,41.4
		c0,7.3,5.1,12.6,12.8,12.6c3.6,0,6-0.8,8.6-2.9l-2.5-4.2c-2,1.4-4,2.2-6.3,2.2c-4.2,0-7.2-3.1-7.2-7.7c0-4.6,3.1-7.6,7.2-7.7
		c2.3,0,4.3,0.8,6.3,2.2l2.5-4.2c-2.6-2.1-5-2.9-8.6-2.9C312.3,28.8,307.2,34.1,307.2,41.4L307.2,41.4z M356,41.4v-12h-5.2v2.9
		c-1.7-2.2-4.2-3.5-7.6-3.5c-6.7,0-12,5.3-12,12.6c0,7.3,5.3,12.6,12,12.6c3.4,0,5.9-1.4,7.6-3.5v2.9h5.2V41.4z M336.6,41.4
		c0-4.2,2.8-7.7,7.3-7.7c4.3,0,7.2,3.3,7.2,7.7s-2.9,7.7-7.2,7.7C339.4,49.1,336.6,45.6,336.6,41.4L336.6,41.4z M273.8,28.8
		c-7,0-11.9,5.1-11.9,12.6c0,7.6,5.1,12.6,12.3,12.6c3.6,0,6.9-0.9,9.8-3.4l-2.6-3.9c-2,1.6-4.6,2.5-7,2.5c-3.4,0-6.4-1.6-7.2-5.9
		h17.8c0.1-0.7,0.1-1.3,0.1-2C285.1,33.9,280.5,28.8,273.8,28.8L273.8,28.8z M273.7,33.5c3.4,0,5.5,2.1,6.1,5.8h-12.4
		C267.9,35.9,270,33.5,273.7,33.5L273.7,33.5z M404.4,41.4V19.8h-5.2v12.5c-1.7-2.2-4.2-3.5-7.6-3.5c-6.7,0-12,5.3-12,12.6
		c0,7.3,5.3,12.6,12,12.6c3.4,0,5.9-1.4,7.6-3.5v2.9h5.2V41.4z M410.5,51.2c0.2,0,0.4,0,0.6,0.1c0.2,0.1,0.4,0.2,0.5,0.3
		c0.1,0.1,0.3,0.3,0.3,0.5c0.1,0.2,0.1,0.4,0.1,0.6c0,0.2,0,0.4-0.1,0.6c-0.1,0.2-0.2,0.3-0.3,0.5c-0.1,0.1-0.3,0.2-0.5,0.3
		c-0.2,0.1-0.4,0.1-0.6,0.1c-0.2,0-0.4,0-0.6-0.1c-0.2-0.1-0.4-0.2-0.5-0.3c-0.1-0.1-0.2-0.3-0.3-0.5c-0.1-0.2-0.1-0.4-0.1-0.6
		c0-0.2,0-0.4,0.1-0.6c0.1-0.2,0.2-0.3,0.3-0.5c0.1-0.1,0.3-0.2,0.5-0.3C410,51.2,410.2,51.2,410.5,51.2z M410.5,53.9
		c0.2,0,0.3,0,0.5-0.1c0.1-0.1,0.3-0.1,0.4-0.3c0.1-0.1,0.2-0.2,0.3-0.4c0.1-0.1,0.1-0.3,0.1-0.5c0-0.2,0-0.3-0.1-0.5
		c-0.1-0.1-0.1-0.3-0.3-0.4c-0.1-0.1-0.2-0.2-0.4-0.3c-0.1-0.1-0.3-0.1-0.5-0.1c-0.2,0-0.3,0-0.5,0.1c-0.1,0.1-0.3,0.1-0.4,0.3
		c-0.1,0.1-0.2,0.2-0.3,0.4c-0.1,0.1-0.1,0.3-0.1,0.5c0,0.2,0,0.3,0.1,0.5c0.1,0.1,0.1,0.3,0.3,0.4c0.1,0.1,0.2,0.2,0.4,0.3
		C410.1,53.8,410.3,53.9,410.5,53.9z M410.5,52c0.2,0,0.3,0,0.4,0.1c0.1,0.1,0.1,0.2,0.1,0.3c0,0.1,0,0.2-0.1,0.3
		c-0.1,0.1-0.2,0.1-0.3,0.1l0.5,0.5h-0.4l-0.4-0.5h-0.1v0.5h-0.3V52H410.5z M410.2,52.2v0.4h0.3c0.1,0,0.1,0,0.2,0
		c0,0,0.1-0.1,0.1-0.1c0-0.1,0-0.1-0.1-0.1c0,0-0.1,0-0.2,0H410.2z M385,41.4c0-4.2,2.8-7.7,7.3-7.7c4.3,0,7.2,3.3,7.2,7.7
		s-2.9,7.7-7.2,7.7C387.7,49.1,385,45.6,385,41.4L385,41.4z M209.1,41.4v-12h-5.2v2.9c-1.7-2.2-4.2-3.5-7.6-3.5
		c-6.7,0-12,5.3-12,12.6c0,7.3,5.3,12.6,12,12.6c3.4,0,5.9-1.4,7.6-3.5v2.9h5.2V41.4z M189.7,41.4c0-4.2,2.8-7.7,7.3-7.7
		c4.3,0,7.2,3.3,7.2,7.7s-2.9,7.7-7.2,7.7C192.4,49.1,189.7,45.6,189.7,41.4z"/>
</g>
</svg>
