<?xml version="1.0" encoding="utf-8"?>
<!-- Generator: Adobe Illustrator 19.0.0, SVG Export Plug-In . SVG Version: 6.00 Build 0)  -->
<svg version="1.1" id="Layer_1" xmlns="http://www.w3.org/2000/svg" xmlns:xlink="http://www.w3.org/1999/xlink" x="0px" y="0px"
	 viewBox="0 0 126 82.8" style="enable-background:new 0 0 126 82.8;" xml:space="preserve">
<style type="text/css">
	.st0{fill:#F26122;}
	.st1{fill:#ED1C24;}
	.st2{fill:#F99F1C;}
</style>
<g id="XMLID_23_">
	<rect x="46.8" y="13" class="st0" width="31.5" height="56.6"/>
	<path id="XMLID_35_" class="st1" d="M48.8,41.3c0-11.5,5.4-21.7,13.7-28.3c-6.1-4.8-13.8-7.7-22.2-7.7c-19.9,0-36,16.1-36,36
		c0,19.9,16.1,36,36,36c8.4,0,16.1-2.9,22.2-7.7C54.1,63,48.8,52.7,48.8,41.3z"/>
	<path d="M117.3,63.6v-1.2h0.5v-0.2h-1.2v0.2h0.5v1.2H117.3z M119.6,63.6v-1.4h-0.4l-0.4,1l-0.4-1h-0.4v1.4h0.3v-1.1l0.4,0.9h0.3
		l0.4-0.9v1.1H119.6z"/>
	<path class="st2" d="M120.8,41.3c0,19.9-16.1,36-36,36c-8.4,0-16.1-2.9-22.2-7.7c8.4-6.6,13.7-16.8,13.7-28.3S70.9,19.5,62.5,13
		c6.1-4.8,13.8-7.7,22.2-7.7C104.6,5.3,120.8,21.4,120.8,41.3z"/>
</g>
</svg>
