<?xml version="1.0" encoding="UTF-8" standalone="no"?>
<svg width="72px" height="40px" viewBox="0 0 72 40" version="1.1" xmlns="http://www.w3.org/2000/svg" xmlns:xlink="http://www.w3.org/1999/xlink">
    <defs>
      <style>
        .cls-1 {
          fill: #FF9900;
        }
        .cls-2 {
          fill: #CB2C30;
        }
      </style>
    </defs>
    <g id="Page-1" stroke="none" stroke-width="1" fill="none" fill-rule="evenodd">
        <g id="cogs">
            <g id="Layer_1">
                <path class=".cls-1" d="M71.3740498,22.1929922 C70.2907435,21.7136619 69.1746749,21.3129735 68.0344138,20.9940036 C68.1205945,20.0475419 68.1205945,19.0951433 68.0344138,18.1486815 C69.1747377,17.8288488 70.2908065,17.4272912 71.3740498,16.9470921 C71.5854951,16.8538624 71.7710911,16.7101184 71.9147035,16.5283564 C71.8069507,15.8204172 71.661009,15.118889 71.4775242,14.4268754 C71.3050669,13.787068 71.1050164,13.1628657 70.8773727,12.5542685 C70.6526604,12.4603225 70.4074046,12.4271461 70.1659863,12.4580373 C68.9881907,12.5871467 67.8211137,12.8009636 66.6737255,13.0978447 C66.2774035,12.2373006 65.8028538,11.4154094 65.2561263,10.642649 C66.0874562,9.79065848 66.8568695,8.87975546 67.5584316,7.91696568 C67.6959195,7.72749093 67.784775,7.50683133 67.8171176,7.2745575 C67.3720162,6.71587692 66.8970589,6.18191752 66.3943446,5.67503913 C65.9287099,5.20688742 65.4449671,4.76734497 64.9431163,4.3564118 C64.7015931,4.38751529 64.4723821,4.48166797 64.2782933,4.6295003 C63.3206853,5.33486168 62.4146801,6.10843349 61.5672642,6.94425045 C60.7986424,6.39459261 59.9811723,5.91747918 59.1252685,5.51898856 C59.4205535,4.36539826 59.6332208,3.19201274 59.761636,2.00785069 C59.7905787,1.77369336 59.7612458,1.53597465 59.6762696,1.31602649 C59.012825,1.05558485 58.3357942,0.83158213 57.6481715,0.645009031 C57.011804,0.471619506 56.3745742,0.333774834 55.7364821,0.231475015 C55.5430044,0.379537257 55.3914007,0.575894212 55.2967159,0.801059603 C54.8260343,1.89156364 54.4335543,3.01452654 54.1222816,4.16134859 C53.1809083,4.07470199 52.2336302,4.07470199 51.2922569,4.16134859 C50.9747589,3.01669371 50.5762277,1.89633916 50.0997145,0.808862131 C50.006975,0.594106882 49.8630441,0.405627938 49.6806432,0.260084287 C48.9793613,0.364412128 48.2842052,0.506799511 47.598221,0.686622517 C46.9618535,0.860012041 46.3410072,1.06114389 45.735682,1.29001806 C45.642241,1.51594503 45.609243,1.76252659 45.6399681,2.00524985 C45.7676659,3.18142959 45.9785984,4.3469605 46.271162,5.49298013 C45.4089975,5.89044775 44.5854242,6.36758523 43.8110582,6.91824202 C42.9704044,6.09125361 42.0722146,5.3255342 41.1233109,4.62689946 C40.9348548,4.48866839 40.7153815,4.39933252 40.4843565,4.36681517 C39.9286796,4.8143225 39.3975909,5.29184717 38.8934377,5.79727875 C38.4278029,6.26543046 37.9906236,6.75178808 37.5818997,7.2563516 C37.612836,7.49918035 37.7064825,7.72963023 37.85352,7.92476821 C38.5454167,8.87491875 39.3035488,9.77447188 40.1221961,10.6166406 C39.568125,11.3953168 39.0874755,12.2242387 38.6864889,13.092643 C37.5557953,12.8023473 36.4060806,12.5928894 35.2459653,12.4658399 C35.0130669,12.4367408 34.7766262,12.4662322 34.5578606,12.5516677 C34.2982096,13.216093 34.0745497,13.8941726 33.8878639,14.5829259 C33.7154066,15.2227333 33.578303,15.8634076 33.4765532,16.5049488 C33.6238194,16.6994724 33.8191207,16.8518956 34.0430755,16.9470921 C35.1081687,17.4196612 36.2051419,17.8159762 37.3258006,18.1330765 C37.2377148,19.0898756 37.2377148,20.0528096 37.3258006,21.0096087 C36.2060826,21.3259626 35.1099778,21.721407 34.0456623,22.1929922 C33.8301857,22.2854991 33.6408743,22.4302608 33.4946612,22.6143287 C33.600133,23.3194984 33.7434821,24.0184131 33.9240799,24.7080072 C34.0965373,25.3478146 34.2965878,25.9720169 34.5242314,26.5806141 C34.7489437,26.6745601 34.9941996,26.7077365 35.2356179,26.6768453 C36.3886694,26.5506746 37.5314432,26.3429595 38.6554466,26.0552438 C39.0566104,26.9328457 39.5390309,27.7705426 40.0963275,28.5572547 C39.2864392,29.3926023 38.5361155,30.2842997 37.8509332,31.2257194 C37.7134453,31.4151942 37.6245897,31.6358538 37.5922472,31.8681276 C38.0373486,32.4268082 38.5123059,32.9607676 39.0150201,33.467646 C39.4806549,33.9357977 39.9643977,34.3753402 40.4662485,34.7862733 C40.7077717,34.7551698 40.9369826,34.6610172 41.1310714,34.5131848 C42.0622494,33.8220301 42.9439546,33.0659223 43.7696685,32.2504515 C44.5498986,32.8085254 45.3804684,33.2917975 46.2504671,33.6939193 C45.9643318,34.8240057 45.7577339,35.9729543 45.6322076,37.1322336 C45.6032649,37.3663909 45.6325978,37.6041096 45.7175739,37.8240578 C46.3810186,38.0844994 47.0580494,38.3085022 47.7456721,38.4950753 C48.3820396,38.6684648 49.0192694,38.8063095 49.6573615,38.9086093 C49.8508392,38.760547 50.0024429,38.5641901 50.0971277,38.3390247 C50.5661774,37.2689561 50.9594957,36.1669265 51.2741489,35.0411559 C52.2258039,35.1297179 53.1835608,35.1297179 54.1352159,35.0411559 C54.4506031,36.1678749 54.8447875,37.2707783 55.3148239,38.3416255 C55.4068336,38.5582669 55.5508169,38.7486016 55.7338952,38.8956051 C56.4380283,38.7872697 57.1357849,38.6405392 57.824078,38.4560626 C58.4604455,38.2826731 59.0812919,38.0815412 59.6866171,37.8526671 C59.780058,37.6267401 59.8130561,37.3801585 59.7823309,37.1374353 C59.6559729,35.9710479 59.4476411,34.8151179 59.1588977,33.6783143 C60.0226331,33.2751602 60.8470985,32.7919126 61.6215882,32.2348465 C62.4592174,33.0579319 63.3539352,33.8201628 64.2989882,34.5157857 C64.4874442,34.6540167 64.7069175,34.7433526 64.9379426,34.77587 C65.4936195,34.3283626 66.0247081,33.850838 66.5288614,33.3454064 C66.9944961,32.8772547 67.4316754,32.390897 67.8403993,31.8863335 C67.809463,31.6435048 67.7158165,31.4130549 67.568779,31.2179169 C66.8739073,30.2638785 66.1123042,29.3608332 65.2897555,28.5156412 C65.8374518,27.7370895 66.312024,26.9090644 66.7073547,26.0422396 C67.8472148,26.3363759 69.0064788,26.5484486 70.1763337,26.6768453 C70.4092322,26.7059444 70.6456728,26.676453 70.8644384,26.5910175 C71.1234799,25.9239867 71.3462783,25.2432962 71.5318483,24.5519567 C71.7043056,23.9121493 71.8414092,23.271475 71.943159,22.6299338 C71.7945233,22.4369594 71.5983509,22.2863453 71.3740498,22.1929922 L71.3740498,22.1929922 Z M52.7072692,26.2893197 C49.0169804,26.2893197 46.0254103,23.2815789 46.0254103,19.5713426 C46.0254103,15.8611063 49.0169804,12.8533654 52.7072692,12.8533654 C56.397558,12.8533654 59.3891282,15.8611063 59.3891282,19.5713426 C59.3891282,21.3530609 58.6851486,23.0618046 57.432057,24.3216697 C56.1789654,25.5815348 54.4794084,26.2893197 52.7072692,26.2893197 L52.7072692,26.2893197 Z" id="Shape" fill="#FF9900"></path>
                <path class=".cls-2" d="M38.8339399,17.5244792 C38.6411313,17.3752027 38.4128214,17.2792604 38.1717038,17.246189 C36.9988242,17.0639685 35.8144487,16.9666203 34.6277058,16.9548946 C34.4707968,16.0197965 34.2283269,15.1012661 33.9033851,14.2110054 C34.9239443,13.6049727 35.8999686,12.926146 36.8239498,12.1797471 C37.0091867,12.0351351 37.1558448,11.8465768 37.2507817,11.6309693 C36.9647899,10.9749716 36.6435454,10.3350874 36.2884698,9.7141481 C35.9556272,9.1332932 35.6003651,8.58278146 35.2226836,8.06261288 C34.9817166,8.03007886 34.7364765,8.06145996 34.5112971,8.15364238 C33.4062699,8.58471545 32.3334195,9.09492281 31.3010041,9.68033715 C30.6976327,8.9496196 30.0291737,8.27580613 29.3039483,7.66728477 C29.8850116,6.63174236 30.391606,5.55571175 30.8198481,4.4474413 C30.9079056,4.22918077 30.9407904,3.99238126 30.9155619,3.75821794 C30.3413502,3.33408058 29.7446297,2.94164122 29.1280418,2.58263697 C28.5572081,2.24799518 27.9768892,1.94889825 27.3870851,1.68534618 C27.1618433,1.77830931 26.9647405,1.92895299 26.8153891,2.12228778 C26.0782866,3.04409812 25.4074534,4.01754458 24.8079859,5.03523179 C23.9187664,4.70330705 23.0007978,4.45516063 22.0659144,4.29399157 C22.0536473,3.11218239 21.9576908,1.9327516 21.778773,0.764647803 C21.7468421,0.531466994 21.6579677,0.309866957 21.520087,0.119638772 C20.8113847,0.0408794768 20.0989456,0.000940875304 19.3859276,0 C18.7271407,0 18.0761143,0.0329440096 17.4328485,0.0988320289 C17.2843745,0.292682806 17.188948,0.522226901 17.1560545,0.764647803 C16.976812,1.92838803 16.8799924,3.10345663 16.8663262,4.28098736 C15.9265261,4.43786318 15.0033295,4.68253532 14.1087336,5.0118242 C13.5134255,4.00259365 12.847801,3.03700121 12.1168515,2.12228778 C11.9727066,1.93700032 11.7851885,1.79046384 11.5710241,1.69574955 C10.9185532,1.98328728 10.2821092,2.30626818 9.66450836,2.66326309 C9.08505176,2.99443709 8.53663747,3.34988561 8.0192655,3.72960867 C7.9869064,3.97187819 8.01811878,4.21844394 8.1098056,4.44484046 C8.53065533,5.53642544 9.02770831,6.59674282 9.59725,7.61786875 C8.86132244,8.23081779 8.18327254,8.91079155 7.57173875,9.64912703 C6.55777847,9.07672024 5.5048971,8.57698357 4.42094347,8.15364238 C4.20341384,8.06687431 3.967902,8.03560083 3.73542561,8.06261288 C3.31356856,8.63992851 2.92323909,9.23987452 2.56616496,9.8597953 C2.2350469,10.4319807 1.93842031,11.0145695 1.67628518,11.6075617 C1.76874851,11.8340211 1.91858227,12.0321892 2.11087763,12.182348 C3.01179507,12.9126396 3.9626534,13.578362 4.95642345,14.1745936 C4.62383899,15.0769397 4.37614091,16.0086516 4.21658154,16.9574955 C3.05926183,16.9721949 1.90440104,17.0686638 0.760536793,17.246189 C0.528609644,17.2782925 0.308201006,17.3676474 0.118995553,17.5062733 C0.0406596946,18.2188065 0.000935816834,18.9350966 0,19.6519687 C0,20.3143167 0.0327668913,20.9688621 0.0983006739,21.6156051 C0.291109243,21.7648816 0.51941923,21.8608239 0.760536793,21.8938952 C1.90690194,22.0726561 3.0643691,22.1699952 4.22434212,22.1851896 C4.38393121,23.1340271 4.63162856,24.0657361 4.96418403,24.9680915 C3.97040935,25.564316 3.01955053,26.2300386 2.11863821,26.9603371 C1.93434692,27.1052612 1.78859827,27.2937929 1.69439319,27.509115 C1.98038502,28.1651127 2.30162947,28.8049969 2.65670506,29.4259362 C2.98609854,29.9998555 3.33963605,30.5503672 3.71731759,31.0774714 C3.95828459,31.1100054 4.20352471,31.0786243 4.42870405,30.9864419 C5.51266108,30.5631087 6.565543,30.0633717 7.57949933,29.4909573 C8.19103312,30.2292927 8.86908302,30.9092665 9.60501058,31.5222155 C9.03545354,32.5433335 8.53840004,33.603652 8.11756618,34.6952438 C8.02950871,34.9135044 7.99662389,35.1503039 8.02185236,35.3844672 C8.59606414,35.8086045 9.19278464,36.2010439 9.80937251,36.5600482 C10.3802062,36.8912222 10.9605251,37.1903191 11.5503292,37.457339 C11.775571,37.3643758 11.9726738,37.2137321 12.1220252,37.0203974 C12.8529886,36.1056943 13.5186138,35.1401009 14.1139073,34.1308609 C15.0063374,34.456144 15.9269075,34.6973258 16.8637393,34.8512944 C16.8773969,36.0288255 16.9742165,37.2038948 17.1534676,38.367634 C17.1853985,38.6008148 17.2742729,38.8224148 17.4121536,39.012643 C18.1199981,39.0913082 18.8315711,39.1312466 19.5437261,39.1322818 C20.2025131,39.1322818 20.8535395,39.0993377 21.4968053,39.0334497 C21.6452792,38.839599 21.7407057,38.6100549 21.7735993,38.367634 C21.9545137,37.2040108 22.0530619,36.0289458 22.0685013,34.8512944 C23.0033879,34.69014 23.9213578,34.4419932 24.8105727,34.1100542 C25.4099361,35.1286347 26.0807714,36.1029533 26.817976,37.025599 C26.9621208,37.2108865 27.1496389,37.357423 27.3638034,37.4521373 C28.0162742,37.1645995 28.6527182,36.8416186 29.2703191,36.4846237 C29.8411528,36.1534497 30.3887048,35.7980012 30.9129751,35.4182781 C30.9453342,35.1760086 30.9141218,34.9294429 30.822435,34.7030464 C30.3947597,33.5903355 29.8881567,32.5099408 29.3065351,31.4701987 C30.0317605,30.8616773 30.7002196,30.1878638 31.3035909,29.4571463 C32.3344136,30.0414389 33.4055254,30.5507725 34.5087103,30.9812402 C34.7257973,31.0697737 34.9613237,31.1028362 35.1942281,31.0774714 C35.6160852,30.5001558 36.0064146,29.9002098 36.3634888,29.280289 C36.6928823,28.7063697 36.9903711,28.1229139 37.2559554,27.5299217 C37.1634921,27.3034624 37.0136583,27.1052942 36.821363,26.9551355 C35.8973817,26.2087366 34.9213574,25.5299099 33.9007982,24.9238772 C34.2257682,24.0336254 34.4682388,23.1150924 34.625119,22.179988 C35.8118623,22.1682713 36.9962384,22.070923 38.1691169,21.8886936 C38.4010441,21.8565901 38.6214527,21.7672352 38.8106582,21.6286093 C38.8889004,20.9169385 38.9286242,20.2015192 38.9296537,19.4855148 C38.9313783,18.8249007 38.8994737,18.1712222 38.8339399,17.5244792 L38.8339399,17.5244792 Z M19.4661203,26.2893197 C15.7758315,26.2893197 12.7842613,23.2815789 12.7842613,19.5713426 C12.7842613,15.8611063 15.7758315,12.8533654 19.4661203,12.8533654 C23.1564091,12.8533654 26.1479793,15.8611063 26.1479793,19.5713426 C26.1479793,23.2815789 23.1564091,26.2893197 19.4661203,26.2893197 L19.4661203,26.2893197 Z" id="Shape" fill="#CB2C30"></path>
            </g>
        </g>
    </g>
</svg>
