<svg xmlns="http://www.w3.org/2000/svg" width="168" height="106" viewBox="0 0 168 106"><g fill="none"><path fill="#000" d="M0 106h168v-106h-168z"/><path fill="#fff" d="M129.043 92.767c0-1.802 1.141-3.244 2.984-3.244 1.762 0 2.923 1.382 2.923 3.244 0 1.862-1.161 3.244-2.923 3.244-1.843 0-2.984-1.442-2.984-3.244zm7.749 0v-8.63h-1.922v5.006c-.661-.861-1.742-1.402-3.104-1.402-2.683 0-4.726 2.103-4.726 5.026 0 2.924 2.043 5.026 4.726 5.026 1.362 0 2.443-.541 3.104-1.402v1.162h1.922v-4.786zm-27.072 0c0-1.802 1.141-3.244 2.983-3.244 1.762 0 2.924 1.382 2.924 3.244 0 1.862-1.162 3.244-2.924 3.244-1.842 0-2.983-1.442-2.983-3.244zm7.749 0v-4.786h-1.922v1.162c-.661-.861-1.742-1.402-3.104-1.402-2.683 0-4.726 2.103-4.726 5.026 0 2.924 2.043 5.026 4.726 5.026 1.362 0 2.443-.541 3.104-1.402v1.162h1.922v-4.786zm7.369-5.026c-1.201 0-2.063.561-2.603 1.402v-1.162h-1.903v9.572h1.923v-5.387c0-1.582.761-2.603 2.122-2.603.421 0 .862.06 1.302.24l.641-1.802c-.461-.18-1.062-.26-1.482-.26zm-73.888 5.026c0-1.802 1.141-3.244 2.983-3.244 1.762 0 2.924 1.382 2.924 3.244 0 1.862-1.162 3.244-2.924 3.244-1.842 0-2.983-1.442-2.983-3.244zm7.749 0v-4.786h-1.923v1.162c-.66-.861-1.742-1.402-3.103-1.402-2.683 0-4.726 2.103-4.726 5.026 0 2.924 2.043 5.026 4.726 5.026 1.361 0 2.443-.541 3.103-1.402v1.162h1.923v-4.786zm25.911-3.244c1.422 0 2.383.921 2.523 2.423h-5.166c.18-1.402 1.101-2.423 2.643-2.423zm.04-1.782c-2.804 0-4.726 2.022-4.726 5.006 0 3.044 2.003 5.046 4.866 5.046 1.442 0 2.763-.361 3.925-1.342l-1.022-1.421c-.801.641-1.822 1.001-2.783 1.001-1.341 0-2.703-.761-2.943-2.483h7.148c.02-.26.04-.521.04-.801-.02-2.984-1.822-5.006-4.505-5.006zm13.456 5.026c0 2.904 1.942 5.026 5.026 5.026 1.442 0 2.403-.32 3.444-1.141l-1.001-1.502c-.781.56-1.602.861-2.503.861-1.662-.02-2.964-1.322-2.964-3.244 0-1.922 1.302-3.224 2.964-3.244.901 0 1.722.3 2.503.861l1.001-1.502c-1.041-.821-2.002-1.141-3.444-1.141-3.084 0-5.026 2.122-5.026 5.026zm-29.035-4.025c-1.001-.661-2.383-1.001-3.905-1.001-2.422 0-3.904 1.141-3.904 3.044 0 1.561 1.081 2.503 3.224 2.803l.981.14c1.141.16 1.762.561 1.762 1.101 0 .741-.841 1.222-2.263 1.222-1.501 0-2.483-.461-3.183-1.001l-.982 1.502c1.422 1.041 3.124 1.241 4.145 1.241 2.764 0 4.285-1.281 4.285-3.104 0-1.682-1.161-2.543-3.264-2.843l-.981-.14c-.901-.12-1.702-.401-1.702-1.041 0-.701.761-1.182 1.903-1.182 1.221 0 2.402.461 2.983.821l.901-1.562zm26.852-1.001c-1.201 0-2.062.561-2.603 1.402v-1.162h-1.902v9.572h1.922v-5.387c0-1.582.761-2.603 2.123-2.603.42 0 .861.06 1.301.24l.641-1.802c-.46-.18-1.061-.26-1.482-.26zm-17.761.24h-3.484v-2.903h-1.942v2.903h-2.023v1.742h2.023v4.526c0 2.222.781 3.544 3.243 3.544.901 0 1.943-.28 2.604-.741l-.601-1.702c-.621.36-1.302.541-1.842.541-1.042 0-1.462-.641-1.462-1.602v-4.566h3.484v-1.742zm-31.197 9.572v-6.028c0-2.262-1.362-3.764-3.685-3.784-1.221-.02-2.483.36-3.364 1.702-.661-1.061-1.702-1.702-3.164-1.702-1.021 0-2.102.28-2.883 1.402v-1.162h-1.922v9.572h1.942v-5.487c0-1.662 1.001-2.543 2.423-2.543 1.382 0 2.162.901 2.162 2.523v5.507h1.943v-5.487c0-1.662 1.041-2.543 2.423-2.543 1.422 0 2.182.901 2.182 2.523v5.507h1.943z"/><path fill="#FF5F00" d="M66.835 71.75h34.655v-56.606h-34.655z"/><path fill="#EC001B" d="M70.412 43.447c0-11.484 5.377-21.711 13.75-28.303-6.124-4.821-13.85-7.697-22.248-7.697-19.881 0-35.997 16.118-35.997 36s16.116 36 35.997 36c8.398 0 16.124-2.876 22.248-7.697-8.373-6.592-13.75-16.819-13.75-28.303"/><path fill="#F89E1B" d="M142.407 43.447c0 19.882-16.116 36-35.997 36-8.398 0-16.125-2.876-22.248-7.697 8.373-6.592 13.75-16.819 13.75-28.303 0-11.484-5.377-21.711-13.75-28.303 6.123-4.821 13.85-7.697 22.248-7.697 19.881 0 35.997 16.118 35.997 36"/></g></svg>