<svg id="Layer_1" data-name="Layer 1" xmlns="http://www.w3.org/2000/svg" viewBox="0 0 278.11 150.5"><defs><style>.cls-1{fill:#f7972a;}.cls-2{fill:#ca2027;}</style></defs><title>Logo_v1</title><path class="cls-1" d="M275.91,85.33A95.8,95.8,0,0,0,263,80.72a60,60,0,0,0,0-10.94,95.82,95.82,0,0,0,12.91-4.62A5.48,5.48,0,0,0,278,63.55a76,76,0,0,0-1.69-8.08q-1-3.69-2.32-7.2a5.39,5.39,0,0,0-2.75-.37,95.85,95.85,0,0,0-13.5,2.46,59.2,59.2,0,0,0-5.48-9.44,95.87,95.87,0,0,0,8.9-10.48,5.48,5.48,0,0,0,1-2.47,76,76,0,0,0-5.5-6.15q-2.7-2.7-5.61-5.07a5.39,5.39,0,0,0-2.57,1.05,95.88,95.88,0,0,0-10.48,8.9,59.22,59.22,0,0,0-9.44-5.48,95.85,95.85,0,0,0,2.46-13.5,5.48,5.48,0,0,0-.33-2.66,76,76,0,0,0-7.84-2.58q-3.69-1-7.39-1.59a5.39,5.39,0,0,0-1.7,2.19A95.83,95.83,0,0,0,209.22,16a60,60,0,0,0-10.94,0,95.81,95.81,0,0,0-4.61-12.89A5.48,5.48,0,0,0,192.05,1,76,76,0,0,0,184,2.64q-3.69,1-7.2,2.32a5.39,5.39,0,0,0-.37,2.75,95.72,95.72,0,0,0,2.44,13.41,59.2,59.2,0,0,0-9.51,5.48,95.72,95.72,0,0,0-10.39-8.81,5.48,5.48,0,0,0-2.47-1,76,76,0,0,0-6.15,5.5q-2.7,2.7-5.07,5.61a5.39,5.39,0,0,0,1.05,2.57,95.64,95.64,0,0,0,8.77,10.35,59.22,59.22,0,0,0-5.55,9.52,95.59,95.59,0,0,0-13.3-2.41,5.48,5.48,0,0,0-2.66.33A76,76,0,0,0,131,56.07q-1,3.69-1.59,7.39a5.39,5.39,0,0,0,2.19,1.7,95.54,95.54,0,0,0,12.69,4.56,60,60,0,0,0,0,11.06,95.52,95.52,0,0,0-12.68,4.55,5.48,5.48,0,0,0-2.13,1.62A76,76,0,0,0,131.14,95q1,3.69,2.32,7.2a5.39,5.39,0,0,0,2.75.37,95.43,95.43,0,0,0,13.22-2.39A59.19,59.19,0,0,0,155,109.8a95.46,95.46,0,0,0-8.68,10.26,5.48,5.48,0,0,0-1,2.47,76,76,0,0,0,5.5,6.15q2.7,2.7,5.61,5.07a5.39,5.39,0,0,0,2.57-1.05A95.48,95.48,0,0,0,169.2,124a59.2,59.2,0,0,0,9.59,5.55,95.47,95.47,0,0,0-2.39,13.22,5.48,5.48,0,0,0,.33,2.66,76,76,0,0,0,7.84,2.58q3.69,1,7.39,1.59a5.39,5.39,0,0,0,1.7-2.19,95.52,95.52,0,0,0,4.55-12.68,60,60,0,0,0,11.06,0,95.53,95.53,0,0,0,4.56,12.69,5.48,5.48,0,0,0,1.62,2.13,76,76,0,0,0,8.08-1.69q3.69-1,7.2-2.32a5.39,5.39,0,0,0,.37-2.75,95.58,95.58,0,0,0-2.41-13.3,59.22,59.22,0,0,0,9.52-5.55,95.62,95.62,0,0,0,10.35,8.77,5.48,5.48,0,0,0,2.47,1,76,76,0,0,0,6.15-5.5q2.7-2.7,5.07-5.61a5.39,5.39,0,0,0-1.05-2.57,95.71,95.71,0,0,0-8.81-10.39,59.2,59.2,0,0,0,5.48-9.51,95.73,95.73,0,0,0,13.41,2.44,5.48,5.48,0,0,0,2.66-.33,76,76,0,0,0,2.58-7.84q1-3.69,1.59-7.39A5.39,5.39,0,0,0,275.91,85.33Zm-72.16,15.75a25.83,25.83,0,1,1,25.83-25.83A25.83,25.83,0,0,1,203.75,101.08Z"/><path class="cls-2" d="M150.12,67.38a5.39,5.39,0,0,0-2.56-1.07,95.88,95.88,0,0,0-13.7-1.12,59.22,59.22,0,0,0-2.8-10.55,95.85,95.85,0,0,0,11.29-7.81A5.48,5.48,0,0,0,144,44.72a76,76,0,0,0-3.72-7.37Q138.35,34,136.16,31a5.39,5.39,0,0,0-2.75.35A95.82,95.82,0,0,0,121,37.22a60,60,0,0,0-7.72-7.74,95.8,95.8,0,0,0,5.86-12.38,5.48,5.48,0,0,0,.37-2.65,76,76,0,0,0-6.91-4.52Q109.29,8,105.87,6.48a5.39,5.39,0,0,0-2.21,1.68A95.73,95.73,0,0,0,95.9,19.36a59.2,59.2,0,0,0-10.6-2.85A95.72,95.72,0,0,0,84.19,2.94a5.48,5.48,0,0,0-1-2.48A76,76,0,0,0,74.94,0q-3.82,0-7.55.38a5.39,5.39,0,0,0-1.07,2.56,95.64,95.64,0,0,0-1.12,13.52,59.22,59.22,0,0,0-10.66,2.81,95.59,95.59,0,0,0-7.7-11.11,5.48,5.48,0,0,0-2.11-1.64,76,76,0,0,0-7.37,3.72Q34,12.15,31,14.34a5.39,5.39,0,0,0,.35,2.75,95.54,95.54,0,0,0,5.75,12.2,60,60,0,0,0-7.83,7.81,95.53,95.53,0,0,0-12.18-5.75A5.48,5.48,0,0,0,14.44,31a76,76,0,0,0-4.52,6.91Q8,41.21,6.48,44.63a5.39,5.39,0,0,0,1.68,2.21,95.47,95.47,0,0,0,11,7.66,59.19,59.19,0,0,0-2.86,10.7A95.48,95.48,0,0,0,2.94,66.31a5.48,5.48,0,0,0-2.48,1A76,76,0,0,0,0,75.56q0,3.82.38,7.55a5.39,5.39,0,0,0,2.56,1.07A95.48,95.48,0,0,0,16.33,85.3,59.21,59.21,0,0,0,19.19,96a95.46,95.46,0,0,0-11,7.66,5.48,5.48,0,0,0-1.64,2.11,76,76,0,0,0,3.72,7.37q1.91,3.31,4.1,6.35a5.39,5.39,0,0,0,2.75-.35,95.52,95.52,0,0,0,12.18-5.75,60,60,0,0,0,7.83,7.81,95.52,95.52,0,0,0-5.75,12.2,5.48,5.48,0,0,0-.37,2.65,76,76,0,0,0,6.91,4.52q3.31,1.91,6.73,3.45a5.39,5.39,0,0,0,2.21-1.68,95.57,95.57,0,0,0,7.7-11.11A59.22,59.22,0,0,0,65.19,134a95.63,95.63,0,0,0,1.12,13.52,5.48,5.48,0,0,0,1,2.48,76,76,0,0,0,8.24.46q3.82,0,7.55-.38a5.39,5.39,0,0,0,1.07-2.56A95.71,95.71,0,0,0,85.31,134a59.19,59.19,0,0,0,10.6-2.85,95.73,95.73,0,0,0,7.76,11.21,5.48,5.48,0,0,0,2.11,1.64,76,76,0,0,0,7.37-3.72q3.31-1.91,6.35-4.1a5.39,5.39,0,0,0-.35-2.75A95.8,95.8,0,0,0,113.29,121a60,60,0,0,0,7.72-7.74,95.83,95.83,0,0,0,12.39,5.86,5.48,5.48,0,0,0,2.65.37,76,76,0,0,0,4.52-6.91q1.91-3.31,3.45-6.73a5.39,5.39,0,0,0-1.68-2.21,95.85,95.85,0,0,0-11.29-7.81,59.2,59.2,0,0,0,2.8-10.55,95.87,95.87,0,0,0,13.7-1.12,5.48,5.48,0,0,0,2.48-1,76,76,0,0,0,.46-8.24Q150.5,71.11,150.12,67.38Zm-74.87,33.7a25.83,25.83,0,1,1,25.83-25.83A25.83,25.83,0,0,1,75.25,101.08Z"/></svg>
