<svg xmlns="http://www.w3.org/2000/svg" width="168" height="106" viewBox="0 0 168 106"><g fill="none"><path fill="#000" d="M0 106h168v-106h-168z"/><path fill="#fff" d="M110.054 87.756c.419 0 1.018.08 1.478.26l-.639 1.957c-.44-.18-.879-.24-1.298-.24-1.359 0-2.038.879-2.038 2.457v5.352h-2.077v-9.546h2.058v1.158c.539-.838 1.318-1.398 2.516-1.398zm-7.188 2.137h-3.395v4.314c0 .959.339 1.598 1.378 1.598.539 0 1.218-.18 1.837-.54l.599 1.778c-.659.459-1.697.739-2.596.739-2.456 0-3.315-1.318-3.315-3.535v-4.354h-1.937v-1.897h1.937l-.001-2.896h2.097l.001 2.896h3.395v1.897zm-9.98.54c-.579-.36-1.758-.819-2.976-.819-1.138 0-1.817.419-1.817 1.118 0 .639.719.819 1.617.938l.979.14c2.077.3 3.335 1.179 3.335 2.856 0 1.818-1.598 3.116-4.354 3.116-1.557 0-2.995-.4-4.134-1.239l.979-1.617c.699.539 1.737.998 3.175.998 1.418 0 2.177-.419 2.177-1.158 0-.539-.539-.839-1.677-.998l-.979-.14c-2.137-.3-3.295-1.258-3.295-2.816 0-1.898 1.557-3.056 3.974-3.056 1.518 0 2.896.34 3.894.999l-.898 1.678zm-15.857 1.497c.22-1.378 1.058-2.316 2.536-2.316 1.338 0 2.197.838 2.417 2.316h-4.953zm7.11.839c-.02-2.976-1.858-5.013-4.534-5.013-2.796 0-4.753 2.037-4.753 5.013 0 3.036 2.037 5.013 4.893 5.013 1.438 0 2.756-.36 3.914-1.338l-1.018-1.538c-.799.639-1.817.998-2.776.998-1.338 0-2.556-.619-2.856-2.336h7.09c.02-.26.04-.519.04-.799zm33.141-3.06c-.426 0-.821.075-1.186.224-.366.15-.682.359-.947.628-.266.269-.476.592-.628.967-.153.376-.23.789-.23 1.241 0 .452.077.866.23 1.241.152.376.362.698.628.967.265.269.581.479.947.628.365.15.76.224 1.186.224.425 0 .821-.074 1.186-.224.365-.149.683-.359.952-.628.269-.269.48-.591.633-.967.153-.375.229-.789.229-1.241 0-.452-.076-.865-.229-1.241-.153-.375-.364-.698-.633-.967s-.587-.478-.952-.628c-.365-.149-.761-.224-1.186-.224zm0-1.964c.737 0 1.42.128 2.048.384.628.256 1.171.608 1.63 1.056.458.449.818.979 1.076 1.59.26.612.389 1.276.389 1.994s-.129 1.382-.389 1.994c-.258.611-.618 1.141-1.076 1.59-.459.448-1.002.8-1.63 1.056-.628.256-1.311.384-2.048.384-.738 0-1.421-.128-2.049-.384-.628-.256-1.17-.608-1.625-1.056-.455-.449-.812-.979-1.071-1.59-.259-.612-.389-1.276-.389-1.994s.13-1.382.389-1.994c.259-.611.616-1.141 1.071-1.59.455-.448.997-.8 1.625-1.056s1.311-.384 2.049-.384zm-52.172 5.024c0-1.678 1.099-3.055 2.896-3.055 1.717 0 2.876 1.318 2.876 3.055s-1.159 3.056-2.876 3.056c-1.797 0-2.896-1.379-2.896-3.056zm7.729 0v-4.773h-2.077v1.158c-.659-.859-1.658-1.398-3.016-1.398-2.676 0-4.773 2.097-4.773 5.013s2.097 5.013 4.773 5.013c1.358 0 2.357-.539 3.016-1.398v1.158h2.077v-4.773zm-11.703 4.773v-5.991c0-2.257-1.438-3.775-3.755-3.795-1.218-.02-2.476.36-3.355 1.698-.659-1.059-1.697-1.698-3.155-1.698-1.019 0-2.017.3-2.796 1.418v-1.178h-2.077v9.546h2.097v-5.292c0-1.658.918-2.536 2.336-2.536 1.378 0 2.077.898 2.077 2.516v5.312h2.097v-5.292c0-1.658.959-2.536 2.337-2.536 1.418 0 2.097.898 2.097 2.516v5.312h2.097z"/><path fill="#7574B6" d="M68.412 71.744h31.5v-56.606h-31.5z"/><path fill="#DD1F26" d="M70.412 43.441c0-11.484 5.377-21.711 13.75-28.303-6.124-4.821-13.85-7.697-22.248-7.697-19.881 0-35.997 16.118-35.997 36s16.116 36 35.997 36c8.398 0 16.124-2.876 22.248-7.697-8.373-6.592-13.75-16.819-13.75-28.303"/><path fill="#00A1DE" d="M142.407 43.441c0 19.882-16.117 36-35.997 36-8.398 0-16.125-2.876-22.248-7.697 8.373-6.592 13.75-16.819 13.75-28.303 0-11.484-5.377-21.711-13.75-28.303 6.123-4.821 13.85-7.697 22.248-7.697 19.88 0 35.997 16.118 35.997 36"/></g></svg>